<svg id="Capa_1" height="512" width="512" xmlns="http://www.w3.org/2000/svg"><path d="M270.224 402.254h-88.448l-30 90h148.448z" fill="#cce6ff"/><path d="M270.224 402.254H226v90h74.224z" fill="#b3ccff"/><path d="M226 121H0v301h452V121z" fill="#333e73"/><path d="M226 121h226v301H226z" fill="#1f2859"/><path d="M226 151H30v241h392V151z" fill="#6cf"/><path d="M226 151h196v241H226z" fill="#4da6ff"/><path d="M226 482H121v30h210v-30z" fill="#e6f7ff"/><path d="M226 482h105v30H226z" fill="#cce6ff"/><path d="M302 0v331h210V0z" fill="#333e73"/><path d="M407 0h105v331H407z" fill="#1f2859"/><path d="M332 30h150v271H332z" fill="#6cf"/><path d="M407 30h75v271h-75z" fill="#4da6ff"/><path d="M377 241h60v30h-60z" fill="#333e73"/><path d="M392 60h30v30h-30z" fill="#b3f2ff"/><path d="M407 60h15v30h-15z" fill="#80eaff"/><path d="M407 241h30v30h-30z" fill="#1f2859"/></svg>